<svg width="43" height="44" viewBox="0 0 43 44" fill="none" xmlns="http://www.w3.org/2000/svg">
<path d="M38.8518 21.9844C38.8518 12.4072 31.0872 4.64258 21.51 4.64258C11.9328 4.64258 4.16821 12.4072 4.16821 21.9844C4.16821 31.5616 11.9328 39.3262 21.51 39.3262C31.0872 39.3262 38.8518 31.5616 38.8518 21.9844ZM21.1223 29.6014C20.9979 29.478 20.8991 29.3314 20.8313 29.1698C20.7636 29.0082 20.7284 28.8348 20.7277 28.6596C20.727 28.4844 20.7609 28.3108 20.8273 28.1486C20.8937 27.9865 20.9914 27.839 21.1148 27.7147L25.4769 23.3184H14.3398C13.9861 23.3184 13.6467 23.1778 13.3966 22.9276C13.1464 22.6775 13.0059 22.3382 13.0059 21.9844C13.0059 21.6306 13.1464 21.2913 13.3966 21.0411C13.6467 20.7909 13.9861 20.6504 14.3398 20.6504H25.4769L21.1148 16.2541C20.9914 16.1296 20.8938 15.982 20.8274 15.8198C20.761 15.6576 20.7273 15.4838 20.7281 15.3086C20.7288 15.1333 20.7641 14.9599 20.8319 14.7982C20.8997 14.6366 20.9987 14.4899 21.1232 14.3665C21.2476 14.2431 21.3952 14.1454 21.5575 14.0791C21.7197 14.0127 21.8934 13.979 22.0687 13.9797C22.4227 13.9813 22.7615 14.1234 23.0107 14.3748L29.6298 21.0448C29.8778 21.2946 30.0169 21.6324 30.0169 21.9844C30.0169 22.3364 29.8778 22.6741 29.6298 22.924L23.0107 29.5939C22.8873 29.7186 22.7406 29.8177 22.5788 29.8855C22.417 29.9534 22.2435 29.9886 22.0681 29.9893C21.8927 29.99 21.7189 29.9561 21.5566 29.8896C21.3943 29.823 21.2467 29.7251 21.1223 29.6014V29.6014Z" fill="black"/>
</svg>
