<svg width="26" height="26" viewBox="0 0 26 26" fill="none" xmlns="http://www.w3.org/2000/svg">
<path d="M13.2279 0.134209C6.35229 0.134209 0.777344 5.85367 0.777344 12.9016C0.777344 18.5432 4.34575 23.3233 9.29261 25.013C9.362 25.0281 9.43282 25.0355 9.50383 25.0352C9.96516 25.0352 10.143 24.6962 10.143 24.4016C10.143 24.0959 10.1319 23.2955 10.1264 22.2283C9.71451 22.3249 9.29318 22.3752 8.87018 22.3784C6.47457 22.3784 5.92986 20.5164 5.92986 20.5164C5.36292 19.0434 4.54585 18.6488 4.54585 18.6488C3.46199 17.8873 4.54029 17.8651 4.62367 17.8651H4.62922C5.87983 17.9762 6.53571 19.188 6.53571 19.188C7.15824 20.2774 7.99198 20.5831 8.73678 20.5831C9.22927 20.5732 9.71413 20.4596 10.1597 20.2496C10.2709 19.427 10.5932 18.8656 10.949 18.5432C8.18652 18.2208 5.27954 17.1258 5.27954 12.2346C5.27954 10.8394 5.76311 9.69999 6.55794 8.81067C6.4301 8.48829 6.00212 7.18765 6.68023 5.43124C6.77118 5.40947 6.86467 5.40012 6.95814 5.40345C7.40836 5.40345 8.42552 5.57575 10.1041 6.74299C12.1437 6.17233 14.3009 6.17233 16.3405 6.74299C18.0191 5.57575 19.0363 5.40345 19.4865 5.40345C19.5799 5.40012 19.6734 5.40947 19.7644 5.43124C20.4425 7.18765 20.0145 8.48829 19.8867 8.81067C20.6815 9.70555 21.1651 10.845 21.1651 12.2346C21.1651 17.137 18.2525 18.2153 15.479 18.5321C15.9236 18.9267 16.3238 19.7049 16.3238 20.8943C16.3238 22.6007 16.3071 23.9792 16.3071 24.396C16.3071 24.6962 16.4795 25.0352 16.9408 25.0352C17.0155 25.0356 17.09 25.0281 17.1631 25.013C22.1155 23.3233 25.6784 18.5376 25.6784 12.9016C25.6784 5.85367 20.1034 0.134209 13.2279 0.134209Z" fill="black"/>
</svg>
