<svg width="29" height="29" viewBox="0 0 29 29" fill="none" xmlns="http://www.w3.org/2000/svg">
<path d="M24.6887 2.13465H3.90566C2.77004 2.13465 1.77783 2.95176 1.77783 4.07404V24.9032C1.77783 26.0316 2.77004 27.0372 3.90566 27.0372H24.6826C25.8243 27.0372 26.6803 26.0249 26.6803 24.9032V4.07404C26.687 2.95176 25.8243 2.13465 24.6887 2.13465ZM9.49705 22.8921H5.92955V11.7999H9.49705V22.8921ZM7.8367 10.1135H7.81113C6.66939 10.1135 5.9301 9.26355 5.9301 8.19963C5.9301 7.11626 6.68885 6.28637 7.85615 6.28637C9.02346 6.28637 9.73774 7.11015 9.76331 8.19963C9.76275 9.26355 9.02346 10.1135 7.8367 10.1135ZM22.5353 22.8921H18.9678V16.8271C18.9678 15.3741 18.4486 14.3813 17.1579 14.3813C16.1718 14.3813 15.5882 15.0484 15.3286 15.6982C15.2313 15.9316 15.2052 16.2496 15.2052 16.5742V22.8921H11.6377V11.7999H15.2052V13.3436C15.7243 12.6043 16.5353 11.5403 18.4225 11.5403C20.7643 11.5403 22.5358 13.084 22.5358 16.4119L22.5353 22.8921Z" fill="black"/>
</svg>
